<svg width="1200" height="1200" viewBox="0 0 1200 1200" fill="none" xmlns="http://www.w3.org/2000/svg">
  <rect width="1200" height="1200" rx="80" fill="#F7E5DA"/>
  <circle cx="905" cy="228" r="145" fill="#FFD6BF"/>
  <circle cx="248" cy="972" r="188" fill="#F0C6B0"/>
  <path d="M600 196C705 196 788 279 788 384V468H735V391C735 317 674 256 600 256C526 256 465 317 465 391V468H412V384C412 279 495 196 600 196Z" fill="#40221A"/>
  <path d="M386 439L502 353L698 353L814 439L918 846C927 913 874 972 806 972H394C326 972 273 913 282 846L386 439Z" fill="#A65038"/>
  <path d="M431 448C476 408 534 386 600 386C666 386 724 408 769 448L798 818C802 870 761 914 709 914H491C439 914 398 870 402 818L431 448Z" fill="#C96245"/>
  <path d="M504 521C540 497 566 456 575 408H625C634 456 660 497 696 521L661 606H539L504 521Z" fill="#F3C6AC"/>
  <rect x="514" y="604" width="172" height="248" rx="44" fill="#B8563C"/>
  <path d="M332 818H475L457 928H373C333 928 302 892 309 852L332 818Z" fill="#8E412D"/>
  <path d="M725 818H868L891 852C898 892 867 928 827 928H743L725 818Z" fill="#8E412D"/>
  <rect x="541" y="602" width="26" height="146" rx="13" fill="#F5D4C1"/>
  <rect x="633" y="602" width="26" height="146" rx="13" fill="#F5D4C1"/>
</svg>