<svg width="1200" height="1200" viewBox="0 0 1200 1200" fill="none" xmlns="http://www.w3.org/2000/svg">
  <rect width="1200" height="1200" rx="80" fill="#F8EBF2"/>
  <circle cx="945" cy="254" r="154" fill="#F7CFDD"/>
  <circle cx="234" cy="971" r="173" fill="#E9C5D5"/>
  <path d="M423 314C423 215 503 135 602 135C701 135 781 215 781 314V378H723V318C723 252 669 198 602 198C535 198 481 252 481 318V378H423V314Z" fill="#4F3548"/>
  <path d="M392 413L499 340H705L812 413L760 655C749 706 704 742 652 742H552C500 742 455 706 444 655L392 413Z" fill="#C16084"/>
  <path d="M521 734H593L544 1038H449C407 1038 376 999 385 958L521 734Z" fill="#8F4464"/>
  <path d="M611 734H683L819 958C828 999 797 1038 755 1038H660L611 734Z" fill="#8F4464"/>
  <path d="M503 459C542 432 572 389 582 340H622C632 389 662 432 701 459L658 548H546L503 459Z" fill="#F6D3C6"/>
  <path d="M494 364C531 342 567 332 602 332C637 332 673 342 710 364L683 444C653 424 626 416 602 416C578 416 551 424 521 444L494 364Z" fill="#D17298"/>
  <rect x="486" y="744" width="76" height="244" rx="38" fill="#6D3550"/>
  <rect x="642" y="744" width="76" height="244" rx="38" fill="#6D3550"/>
</svg>